<svg width="115" height="15" viewBox="0 0 115 15" fill="none" xmlns="http://www.w3.org/2000/svg">
<path fill-rule="evenodd" clip-rule="evenodd" d="M74.5989 13.6025L74.8757 14H79L73.3051 5.91246L78.5028 0H77.3107L76.2938 1.15379L72.774 5.16167L69.4181 0.397476L69.1412 0H65.0169L66.0226 1.42981L70.4859 7.76183L65 14H66.1921L71.0113 8.51262L74.5989 13.6025ZM75.3672 13.0891H77.226L72.6723 6.62461L72.1469 5.87382L68.6497 0.910883H66.791L71.113 7.04969L71.6441 7.80047L75.3672 13.0891Z" fill="white"/>
<path d="M108.113 1.27273C109.979 1.27273 110.213 1.27273 111.029 1.27273C112.895 1.38843 113.828 2.31405 113.944 4.16529C113.944 4.8595 113.944 5.09091 113.944 7.05785C113.944 8.90909 113.944 9.1405 113.944 9.95041C113.828 11.8017 113.011 12.7273 111.029 12.843C110.329 12.843 110.096 12.843 108.113 12.843C106.248 12.843 106.014 12.843 105.198 12.843C103.332 12.7273 102.399 11.8017 102.283 9.95041C102.283 9.2562 102.283 9.02479 102.283 7.05785C102.283 5.20661 102.283 4.97521 102.283 4.16529C102.399 2.31405 103.332 1.38843 105.198 1.27273C106.014 1.27273 106.248 1.27273 108.113 1.27273ZM108.113 0C106.131 0 105.898 0 105.198 0C102.633 0.115702 101.117 1.61983 101 4.16529C101 4.97521 101 5.20661 101 7.05785C101 8.90909 101 9.2562 101 9.95041C101.117 12.4959 102.516 13.8843 105.082 14C105.898 14 106.131 14 107.997 14C109.863 14 110.213 14 110.912 14C113.478 13.8843 114.877 12.4959 114.994 9.95041C114.994 9.1405 114.994 8.90909 114.994 7.05785C114.994 5.20661 114.994 4.8595 114.994 4.16529C115.11 1.61983 113.594 0.115702 111.029 0C110.329 0 110.096 0 108.113 0ZM108.113 3.47107C106.131 3.47107 104.498 5.09091 104.498 7.05785C104.498 9.02479 106.131 10.6446 108.113 10.6446C110.096 10.6446 111.729 9.02479 111.729 7.05785C111.729 5.09091 110.096 3.47107 108.113 3.47107ZM108.113 9.3719C106.831 9.3719 105.781 8.33058 105.781 7.05785C105.781 5.78512 106.831 4.7438 108.113 4.7438C109.396 4.7438 110.446 5.78512 110.446 7.05785C110.446 8.33058 109.396 9.3719 108.113 9.3719ZM111.962 2.42975C111.495 2.42975 111.029 2.77686 111.029 3.23967C111.029 3.70248 111.495 4.16529 111.962 4.16529C112.428 4.16529 112.778 3.81818 112.778 3.35537C112.778 2.89256 112.428 2.42975 111.962 2.42975Z" fill="white"/>
<path fill-rule="evenodd" clip-rule="evenodd" d="M2.1 14.1V7.8H0V5.3H2.1V3.3C2.1 2.3 2.4 1.50001 3 0.900009C3.6 0.300009 4.4 0 5.3 0C6.1 0 6.7 6.10203e-06 7.2 0.100006V2.3H5.9C5.4 2.3 5.1 2.40001 4.9 2.60001C4.8 2.80001 4.7 3.1 4.7 3.5V5.20001H7L6.7 7.70001H4.7V14H2.1V14.1Z" fill="white"/>
<path fill-rule="evenodd" clip-rule="evenodd" d="M32.0333 14H29.1167V4.43334H32.0333V14ZM30.6333 3.26667C30.1667 3.26667 29.8167 3.15001 29.4667 2.80001C29.1167 2.45001 29 2.10001 29 1.63334C29 1.16668 29.1167 0.816677 29.4667 0.466677C29.8167 0.116677 30.1667 0 30.6333 0C31.1 0 31.45 0.116677 31.8 0.466677C32.15 0.816677 32.2667 1.16668 32.2667 1.63334C32.2667 2.10001 32.15 2.45001 31.8 2.80001C31.45 3.03334 31.1 3.26667 30.6333 3.26667ZM43.1167 14H40.2V9.33333C40.2 8.51667 40.0833 8.05001 39.9667 7.70001C39.7333 7.11667 39.2667 6.88334 38.5667 6.88334C37.8667 6.88334 37.4 7.11667 37.1667 7.70001C36.9333 8.05001 36.8167 8.63333 36.8167 9.33333V14H33.9V4.43334H36.7V5.71668C36.9333 5.25001 37.2833 4.9 37.75 4.66667C38.2167 4.31667 38.8 4.20001 39.5 4.20001C40.9 4.20001 41.8333 4.66666 42.4167 5.48333C42.8833 6.18333 43 7.23333 43 8.75V14H43.1167Z" fill="white"/>
</svg>
