<svg width="18" height="14" viewBox="0 0 18 14" fill="none" xmlns="http://www.w3.org/2000/svg">
<path d="M10.5043 8.76843C10.0565 9.06698 9.53631 9.22479 9 9.22479C8.46373 9.22479 7.94355 9.06698 7.49573 8.76843L0.119848 3.85102C0.0789258 3.82374 0.0390586 3.7953 0 3.76605V11.8238C0 12.7476 0.749707 13.4808 1.65702 13.4808H16.3429C17.2668 13.4808 18 12.7311 18 11.8238V3.76601C17.9608 3.79533 17.9209 3.82384 17.8799 3.85116L10.5043 8.76843Z" fill="#3B8DCB"/>
<path d="M0.704883 2.97345L8.08077 7.89089C8.35998 8.07705 8.67997 8.17011 8.99996 8.17011C9.31999 8.17011 9.64002 8.07701 9.91923 7.89089L17.2951 2.97345C17.7365 2.67937 18 2.18718 18 1.65597C18 0.742574 17.2569 -0.000488281 16.3435 -0.000488281H1.65646C0.743098 -0.000453125 0 0.742609 0 1.65685C0 2.18718 0.263531 2.67937 0.704883 2.97345Z" fill="#3B8DCB"/>
</svg>
