<svg width="118" height="118" viewBox="0 0 118 118" fill="none" xmlns="http://www.w3.org/2000/svg">
<path d="M67.8182 55.364C70.4728 53.212 72.1726 49.9199 72.1726 46.2365C72.1726 39.7715 66.9394 34.5138 60.5082 34.5138C54.077 34.5138 48.8469 39.7745 48.8469 46.2365C48.8469 49.7946 50.4342 52.9828 52.9276 55.1347C46.2257 57.9683 41.5095 64.6321 41.5095 72.3871C41.5095 73.57 42.4613 74.5268 43.638 74.5268H76.5969C77.7737 74.5268 78.7255 73.57 78.7255 72.3871C78.7255 64.8338 74.2464 58.3138 67.8182 55.364ZM60.5113 38.7902C64.595 38.7902 67.9186 42.1313 67.9186 46.2335C67.9186 50.3356 64.595 53.6797 60.5113 53.6797C56.4275 53.6797 53.107 50.3387 53.107 46.2335C53.107 42.1282 56.4306 38.7902 60.5113 38.7902ZM60.119 57.9592C67.3074 57.9592 73.2794 63.3024 74.3103 70.2443H45.9277C46.9586 63.3024 52.9306 57.9592 60.119 57.9592Z" fill="white"/>
<path d="M115.871 84.6141H108.61C112.812 76.7093 115.017 67.8661 115.017 58.8181C115.017 51.3566 113.564 44.1701 110.699 37.4117H114.695C115.443 37.4117 116.133 37.0173 116.519 36.3754C116.905 35.7335 116.927 34.9326 116.577 34.2693L99.8618 2.55851C99.503 1.87685 98.8036 1.43973 98.0343 1.42139C98.0161 1.42139 97.9978 1.42139 97.9796 1.42139C97.2316 1.42139 96.5383 1.81571 96.1521 2.46375L90.0401 12.7558C81.2371 7.03665 71.0779 4.02575 60.5113 4.02575C52.0154 4.02575 43.6137 6.03404 36.0696 9.83664C32.7491 3.96767 26.476 0 19.2937 0C8.65402 0 0 8.69953 0 19.3951C0 26.9575 4.33005 33.5173 10.6244 36.7147C7.55935 43.6872 6.00247 51.1181 6.00247 58.8181C6.00247 68.3766 8.47462 77.7272 13.1574 85.9682L4.14152 95.6643C3.37829 96.4865 3.37829 97.7643 4.14152 98.5865L21.5621 117.321C21.9665 117.755 22.529 118 23.1159 118C23.1281 118 23.1402 118 23.1524 118C23.7545 117.988 24.3261 117.722 24.7214 117.266L33.9106 106.656C42.0082 111.211 51.1639 113.614 60.5082 113.614C68.9585 113.614 77.2811 111.642 84.7857 107.888V115.86C84.7857 117.043 85.7375 118 86.9142 118H115.871C117.048 118 118 117.043 118 115.86V86.7508C118 85.5678 117.048 84.611 115.871 84.611V84.6141ZM97.8701 7.92006L111.158 33.1322H82.8974L97.8701 7.92006ZM4.25707 19.3951C4.25707 11.0593 11.0015 4.27946 19.2937 4.27946C27.5858 4.27946 34.3303 11.0593 34.3303 19.3951C34.3303 27.7309 27.5858 34.5108 19.2937 34.5108C11.0015 34.5108 4.25707 27.7309 4.25707 19.3951ZM23.0642 112.666L8.61449 97.1254L23.1129 81.5329L36.9757 96.6058L23.0642 112.666ZM60.5113 109.334C52.1978 109.334 44.0485 107.268 36.7811 103.349L41.4396 97.9691C42.1542 97.1437 42.1359 95.9149 41.397 95.111L24.6819 76.9386C24.2805 76.5015 23.7149 76.2539 23.125 76.2508H23.119C22.529 76.2508 21.9665 76.4953 21.5651 76.9294L16.2164 82.6792C12.3151 75.3705 10.2595 67.1814 10.2595 58.8151C10.2595 51.6317 11.7282 44.702 14.62 38.2095C16.1161 38.5854 17.6821 38.7872 19.2937 38.7872C29.9333 38.7872 38.5873 30.0877 38.5873 19.3921C38.5873 17.4357 38.2954 15.5467 37.7572 13.7646C44.7662 10.1851 52.5931 8.2991 60.5113 8.2991C70.3025 8.2991 79.7168 11.1021 87.8599 16.427L77.3206 34.1715C76.9284 34.8317 76.9192 35.654 77.2963 36.3234C77.6734 36.9929 78.3819 37.4055 79.1481 37.4055H106.038C109.173 44.1182 110.76 51.3138 110.76 58.812C110.76 67.9334 108.324 76.8224 103.714 84.608H86.9142C85.7375 84.608 84.7857 85.5648 84.7857 86.7477V103.046C77.3875 107.158 69.0224 109.328 60.5082 109.328L60.5113 109.334ZM113.743 113.721H89.0428V88.8905H104.906C104.906 88.8905 104.913 88.8905 104.916 88.8905C104.919 88.8905 104.922 88.8905 104.925 88.8905H113.743V113.721Z" fill="#3B8DCB"/>
</svg>
