<svg width="87" height="112" viewBox="0 0 87 112" fill="none" xmlns="http://www.w3.org/2000/svg">
<path d="M85.8947 22.6764L43.9018 0.246712C43.2774 -0.0856896 42.5336 -0.0826949 41.9152 0.258691L1.0844 22.6883C0.415239 23.0567 0 23.7604 0 24.527V53.8263C0.0238986 77.912 14.2585 99.7007 36.2722 109.349L41.9391 111.826C42.4679 112.057 43.0713 112.06 43.6031 111.826L49.99 109.062C72.4129 99.6229 87 77.6215 87 53.2453V24.527C87 23.7514 86.5728 23.0417 85.8917 22.6764H85.8947ZM82.8207 53.2453C82.8147 75.9415 69.2314 96.4246 48.3529 105.208L48.338 105.214L42.7756 107.621L37.9421 105.507C17.455 96.5265 4.20317 76.247 4.17927 53.8263V25.7668L42.9339 4.4781L82.8207 25.7848V53.2453Z" fill="#3B8DCB"/>
<path d="M27.5103 52.4667C26.7605 51.5863 25.4401 51.4815 24.5618 52.2332C23.6835 52.9848 23.579 54.3084 24.3288 55.1858L35.373 68.1495C36.1108 69.015 37.4014 69.1318 38.2826 68.416L64.0005 47.4418C64.8967 46.7111 65.0312 45.3905 64.3023 44.4951C63.5734 43.5967 62.2559 43.4619 61.3627 44.1926L37.2281 63.8732L27.5103 52.4667Z" fill="white"/>
</svg>
