<svg width="526" height="63" viewBox="0 0 526 63" fill="none" xmlns="http://www.w3.org/2000/svg">
<path d="M106 0.977746C105.768 0.977746 105.579 1.16621 105.579 1.39868C105.579 1.63116 105.768 1.81962 106 1.81962V0.977746ZM24.1176 1.81962C24.3501 1.81962 24.5386 1.63116 24.5386 1.39868C24.5386 1.16621 24.3501 0.977746 24.1176 0.977746V1.81962ZM106 1.81962H518.977V0.977746H106V1.81962ZM518.977 1.81962C520.561 1.81962 521.978 2.28651 522.989 3.02051C524 3.7548 524.579 4.73339 524.579 5.77368H525.421C525.421 4.39731 524.652 3.18839 523.483 2.33936C522.314 1.49002 520.719 0.977746 518.977 0.977746V1.81962ZM524.579 5.77368V58.0237H525.421V5.77368H524.579ZM524.579 58.0237C524.579 59.064 524 60.0426 522.989 60.7769C521.978 61.5109 520.561 61.9777 518.977 61.9777V62.8196C520.719 62.8196 522.314 62.3073 523.483 61.458C524.652 60.609 525.421 59.4001 525.421 58.0237H524.579ZM518.977 61.9777H7.02321V62.8196H518.977V61.9777ZM7.02321 61.9777C5.43881 61.9777 4.02184 61.5109 3.01132 60.7769C2.00038 60.0426 1.42094 59.064 1.42094 58.0237H0.579065C0.579065 59.4001 1.34767 60.609 2.51656 61.458C3.68587 62.3073 5.2805 62.8196 7.02321 62.8196V61.9777ZM1.42094 58.0237V5.77368H0.579065V58.0237H1.42094ZM1.42094 5.77368C1.42094 4.73339 2.00038 3.7548 3.01132 3.02051C4.02184 2.28651 5.43881 1.81962 7.02321 1.81962V0.977746C5.2805 0.977746 3.68587 1.49002 2.51656 2.33936C1.34767 3.18839 0.579065 4.39731 0.579065 5.77368H1.42094ZM7.02321 1.81962H24.1176V0.977746H7.02321V1.81962Z" fill="#3B8DCB"/>
</svg>
