<svg width="526" height="144" viewBox="0 0 526 144" fill="none" xmlns="http://www.w3.org/2000/svg">
<path d="M129 0.376428C128.768 0.376428 128.579 0.564887 128.579 0.797363C128.579 1.02984 128.768 1.2183 129 1.2183V0.376428ZM521.694 5.13629H521.273L521.273 5.14673L521.694 5.13629ZM525 138.458H525.421L525.421 138.448L525 138.458ZM4.30611 138.458H4.72718L4.72692 138.448L4.30611 138.458ZM1 5.13629H0.578935L0.579194 5.14673L1 5.13629ZM23.9718 1.2183C24.2043 1.2183 24.3927 1.02984 24.3927 0.797363C24.3927 0.564887 24.2043 0.376428 23.9718 0.376428V1.2183ZM129 1.2183H515.709V0.376428H129V1.2183ZM515.709 1.2183C517.283 1.2183 518.69 1.68126 519.694 2.40885C520.698 3.13678 521.273 4.10633 521.273 5.13629H522.115C522.115 3.76951 521.35 2.5696 520.188 1.72725C519.026 0.884563 517.441 0.376428 515.709 0.376428V1.2183ZM521.273 5.14673L524.579 138.469L525.421 138.448L522.115 5.12586L521.273 5.14673ZM524.579 138.458C524.579 139.488 524.004 140.458 523 141.186C521.997 141.913 520.589 142.376 519.015 142.376V143.218C520.747 143.218 522.332 142.71 523.494 141.867C524.656 141.025 525.421 139.825 525.421 138.458H524.579ZM519.015 142.376H10.2913V143.218H519.015V142.376ZM10.2913 142.376C8.71723 142.376 7.30965 141.913 6.30599 141.186C5.30187 140.458 4.72705 139.488 4.72705 138.458H3.88518C3.88518 139.825 4.6499 141.025 5.81186 141.867C6.97428 142.71 8.55929 143.218 10.2913 143.218V142.376ZM4.72692 138.448L1.42081 5.12586L0.579194 5.14673L3.88531 138.469L4.72692 138.448ZM1.42094 5.13629C1.42094 4.10632 1.99576 3.13678 2.99987 2.40885C4.00353 1.68126 5.41112 1.2183 6.9852 1.2183V0.376428C5.25318 0.376428 3.66816 0.884563 2.50575 1.72725C1.34379 2.5696 0.579065 3.76952 0.579065 5.13629H1.42094ZM6.9852 1.2183H23.9718V0.376428H6.9852V1.2183Z" fill="#3B8DCB"/>
</svg>
