<svg width="116" height="90" viewBox="0 0 116 90" fill="none" xmlns="http://www.w3.org/2000/svg">
<path d="M83.7137 66.372C82.2734 66.372 81.1084 65.1982 81.1084 63.7467V27.611H74.9266C73.9068 27.611 72.9801 27.0109 72.5558 26.077C72.1315 25.1431 72.2879 24.0443 72.9578 23.2679L92.1881 0.907613C92.6831 0.333792 93.4014 0 94.157 0H94.1793C94.9422 0.00750094 95.6643 0.348794 96.1555 0.941368L114.735 23.2979C115.386 24.078 115.527 25.1694 115.099 26.0958C114.671 27.0221 113.752 27.611 112.74 27.611H105.698V63.7467C105.698 65.1982 104.533 66.372 103.093 66.372H83.7137ZM100.488 61.1214V24.9856C100.488 23.5342 101.653 22.3603 103.093 22.3603H107.157L94.1235 6.67583L80.6321 22.3603H83.7137C85.154 22.3603 86.3189 23.5342 86.3189 24.9856V61.1214H100.488Z" fill="white"/>
<path d="M68.1567 78.8574H49.1385C47.6982 78.8574 46.5332 77.6835 46.5332 76.232V38.7761C46.5332 37.3247 47.6982 36.1508 49.1385 36.1508H68.1567C69.597 36.1508 70.7619 37.3247 70.7619 38.7761V76.232C70.7619 77.6835 69.597 78.8574 68.1567 78.8574ZM51.7437 73.6067H65.5515V41.4014H51.7437V73.6067Z" fill="white"/>
<path d="M31.7541 78.8574H12.7359C11.2956 78.8574 10.1306 77.6835 10.1306 76.232V55.762C10.1306 54.3105 11.2956 53.1366 12.7359 53.1366H31.7541C33.1944 53.1366 34.3593 54.3105 34.3593 55.762V76.232C34.3593 77.6835 33.1944 78.8574 31.7541 78.8574ZM15.3448 73.6067H29.1526V58.3873H15.3448V73.6067Z" fill="white"/>
<path d="M113.395 90H2.60524C1.16491 90 0 88.8261 0 87.3747C0 85.9232 1.16491 84.7493 2.60524 84.7493H113.395C114.835 84.7493 116 85.9232 116 87.3747C116 88.8261 114.835 90 113.395 90Z" fill="#3B8DCB"/>
<path d="M103.934 78.8574H83.7658C82.3255 78.8574 81.1606 77.6835 81.1606 76.232C81.1606 74.7806 82.3255 73.6067 83.7658 73.6067H103.934C105.374 73.6067 106.539 74.7806 106.539 76.232C106.539 77.6835 105.374 78.8574 103.934 78.8574Z" fill="white"/>
</svg>
