<svg width="23" height="23" viewBox="0 0 23 23" fill="none" xmlns="http://www.w3.org/2000/svg">
<path fill-rule="evenodd" clip-rule="evenodd" d="M4.94213 22.8099H0.190089V7.22313H4.94213V22.8099ZM2.66115 5.32231C1.90083 5.32231 1.33058 5.13224 0.760336 4.56199C0.190089 3.99174 0 3.4215 0 2.66116C0 1.90084 0.190089 1.33059 0.760336 0.760346C1.33058 0.190099 1.90083 0 2.66115 0C3.42148 0 3.99173 0.190099 4.56197 0.760346C5.13222 1.33059 5.32229 1.90084 5.32229 2.66116C5.32229 3.4215 5.13222 3.99174 4.56197 4.56199C3.99173 4.94215 3.42148 5.32231 2.66115 5.32231ZM23 22.8099H18.2479V15.2066C18.2479 13.876 18.0578 13.1157 17.8678 12.5454C17.4875 11.595 16.7273 11.2149 15.5868 11.2149C14.4462 11.2149 13.6859 11.595 13.3058 12.5454C12.9256 13.1157 12.7355 14.0661 12.7355 15.2066V22.8099H7.98345V7.22313H12.5454V9.31405C12.9256 8.55371 13.4958 7.98345 14.2562 7.60329C15.0165 7.03305 15.9669 6.84297 17.1074 6.84297C19.3884 6.84297 20.909 7.60328 21.8595 8.93386C22.6197 10.0744 22.8099 11.7851 22.8099 14.2562V22.8099H23Z" fill="white"/>
</svg>
